# xmcd
#
# Track frame offsets:
#	150
#	12807
#	25675
#	40240
#	59190
#	74585
#	89270
#	106437
#	122037
#	139327
#	152547
#
# Disc length: 2236 seconds
#
# Revision: 0
# Processed by: cddbd v1.5.1PL2 Copyright (c) Steve Scherf et al.
# Submitted via: dBpowerAMP V4.0
#
DISCID=9608ba0b
DTITLE=Will Triplett - Undiscovered Country
DYEAR=2001
DGENRE=Country
TTITLE0=Undiscovered Country
TTITLE1=Boys' Night Out
TTITLE2=Highway Nights and Interstate Days
TTITLE3=The Little Things
TTITLE4=Jenny
TTITLE5=Brothers and Friends
TTITLE6=I Remember the Rain
TTITLE7=Trouble in Paradise
TTITLE8=Paved the Way
TTITLE9=I Like the Old You
TTITLE10=Closin' Time
EXTD=WT5802
EXTT0=
EXTT1=
EXTT2=
EXTT3=
EXTT4=
EXTT5=
EXTT6=
EXTT7=
EXTT8=
EXTT9=
EXTT10=
PLAYORDER=
